<?xml version="1.0" encoding="UTF-8" ?>
<!DOCTYPE svg PUBLIC "-//W3C//DTD SVG 1.1//EN" "http://www.w3.org/Graphics/SVG/1.1/DTD/svg11.dtd">
<svg width="200pt" height="200pt" viewBox="0 0 600 600" version="1.1" xmlns="http://www.w3.org/2000/svg">
<path fill="#ffffff" d=" M 0.00 0.00 L 600.00 0.00 L 600.00 600.00 L 0.00 600.00 L 0.00 0.00 Z" />
<path fill="#ed1e24" d=" M 280.98 9.39 C 286.80 8.52 292.68 8.42 298.55 8.54 C 298.38 23.79 298.50 39.04 298.48 54.29 C 265.42 54.76 232.21 61.24 202.07 75.05 C 194.67 77.97 187.79 81.95 180.80 85.71 C 173.03 72.61 165.48 59.37 157.87 46.17 C 183.08 31.58 210.64 21.37 239.00 14.92 C 252.90 12.47 266.84 9.89 280.98 9.39 Z" />
<path fill="#fba51a" d=" M 301.52 8.45 C 318.40 8.36 335.22 10.33 351.84 13.15 C 366.45 15.40 380.58 19.89 394.66 24.28 C 405.89 28.54 417.18 32.77 427.81 38.40 C 432.55 40.92 437.80 42.71 441.91 46.28 C 439.89 51.73 436.21 56.35 433.46 61.42 C 428.98 69.62 424.02 77.54 419.54 85.74 C 403.89 77.14 387.55 69.69 370.35 64.79 C 348.16 57.54 324.75 55.03 301.52 54.43 C 301.54 39.10 301.53 23.77 301.52 8.45 Z" />
<path fill="#ec197a" d=" M 115.49 75.53 C 128.06 65.27 141.16 55.50 155.43 47.73 C 162.40 61.19 170.85 73.84 177.74 87.35 C 165.92 94.80 154.25 102.54 143.70 111.75 C 123.16 129.25 105.40 150.13 91.79 173.46 C 78.56 165.99 65.45 158.29 52.24 150.77 C 65.49 126.90 83.16 105.65 102.86 86.84 C 104.35 85.34 106.02 83.99 107.96 83.12 C 109.39 82.57 110.59 81.55 111.29 80.18 C 112.36 78.36 113.84 76.83 115.49 75.53 Z" />
<path fill="#f4eb20" d=" M 444.70 48.25 C 445.59 48.33 446.48 48.41 447.38 48.49 C 452.33 52.67 458.06 55.74 463.41 59.36 C 497.60 83.21 526.90 114.28 547.77 150.43 C 539.81 155.81 531.21 160.11 523.03 165.12 C 518.33 167.94 513.50 170.52 508.65 173.08 C 505.49 169.21 502.97 164.89 500.21 160.75 C 484.67 137.49 464.85 117.15 442.25 100.69 C 435.91 95.76 428.89 91.83 422.29 87.28 C 429.39 74.07 437.35 61.33 444.70 48.25 Z" />
<path fill="#f15b40" d=" M 238.83 65.52 C 258.18 59.73 278.47 57.84 298.59 57.50 C 298.43 72.53 298.62 87.56 298.50 102.59 C 265.88 102.85 233.12 111.35 204.88 127.81 C 197.41 114.59 189.40 101.68 182.24 88.30 C 200.14 78.58 218.96 70.26 238.83 65.52 Z" />
<path fill="#fdb64e" d=" M 301.81 57.65 C 322.22 57.34 342.68 60.13 362.32 65.73 C 381.80 70.71 400.54 78.53 417.92 88.61 C 412.24 98.67 406.09 108.46 400.62 118.64 C 398.91 121.58 396.93 124.37 395.04 127.21 C 382.59 121.17 370.18 114.77 356.75 111.16 C 344.18 107.15 331.18 104.37 318.00 103.55 C 312.59 103.24 307.18 102.99 301.78 102.59 C 301.81 87.61 301.77 72.63 301.81 57.65 Z" />
<path fill="#b7306e" d=" M 107.96 83.12 C 107.43 81.52 109.75 79.39 111.29 80.18 C 110.59 81.55 109.39 82.57 107.96 83.12 Z" />
<path fill="#e2e2e2" d=" M 538.64 90.17 C 538.29 88.72 539.60 87.49 540.01 86.21 C 540.35 88.32 540.81 90.42 541.53 92.44 C 540.53 91.72 539.57 90.96 538.64 90.17 Z" />
<path fill="#f15f90" d=" M 94.23 175.17 C 114.90 140.19 144.41 110.29 179.70 90.06 C 187.20 103.13 194.82 116.14 202.25 129.25 C 181.59 141.48 163.16 157.55 148.31 176.42 C 142.81 183.16 138.27 190.56 133.39 197.74 C 120.34 190.20 107.35 182.58 94.23 175.17 Z" />
<path fill="#f6ed60" d=" M 418.98 92.97 C 420.33 89.78 423.76 91.98 425.80 93.17 C 448.20 107.01 468.00 124.88 484.83 145.08 C 492.22 154.65 499.95 164.17 505.29 175.07 C 497.78 179.71 490.16 184.17 482.42 188.42 C 476.96 191.32 472.16 195.70 465.95 196.92 C 449.80 168.93 425.87 145.83 398.20 129.31 C 404.86 117.04 411.63 104.83 418.98 92.97 Z" />
<path fill="#e5e5e5" d=" M 557.40 97.09 C 558.31 95.77 560.63 97.26 559.59 98.60 C 558.67 99.91 556.35 98.42 557.40 97.09 Z" />
<path fill="#f68567" d=" M 238.80 115.66 C 258.08 109.54 278.19 105.57 298.48 105.54 C 298.53 120.86 298.47 136.19 298.52 151.51 C 282.86 151.49 267.39 154.78 252.54 159.54 C 244.51 162.23 237.01 166.21 229.39 169.85 C 221.33 156.94 214.14 143.52 206.32 130.47 C 216.45 124.13 227.66 119.86 238.80 115.66 Z" />
<path fill="#fec679" d=" M 301.83 105.46 C 321.74 105.64 341.44 109.55 360.41 115.40 C 371.85 119.67 383.36 124.03 393.78 130.50 C 386.24 143.38 378.60 156.20 371.35 169.24 C 363.10 166.93 355.96 161.89 347.73 159.50 C 332.89 154.95 317.52 151.03 301.87 151.71 C 301.32 136.30 301.61 120.87 301.83 105.46 Z" />
<path fill="#f489a7" d=" M 136.19 199.23 C 152.49 171.56 175.92 148.06 203.67 131.89 C 211.67 144.87 218.88 158.32 226.79 171.34 C 207.55 183.30 190.48 199.04 178.33 218.25 C 177.20 219.52 176.06 222.69 173.94 221.10 C 161.36 213.81 148.69 206.66 136.19 199.23 Z" />
<path fill="#f9f18c" d=" M 384.89 151.95 C 388.46 145.13 392.51 138.56 396.72 132.11 C 416.32 143.85 434.25 158.69 448.25 176.83 C 453.66 183.70 458.64 190.89 463.41 198.22 C 459.04 202.94 452.96 205.25 447.62 208.60 C 443.04 211.43 438.08 213.58 433.63 216.61 C 430.58 218.69 427.30 220.40 423.89 221.79 C 415.11 206.94 403.72 193.50 390.06 182.92 C 384.92 178.67 379.09 175.37 373.88 171.20 C 377.26 164.61 381.49 158.52 384.89 151.95 Z" />
<path fill="#d1499b" d=" M 50.36 153.16 C 63.55 161.01 77.07 168.28 90.17 176.27 C 69.80 212.03 58.83 253.04 58.38 294.18 C 43.60 294.28 28.82 294.14 14.04 294.28 C 14.05 284.35 13.80 274.42 14.27 264.50 C 18.02 230.90 27.59 197.93 42.71 167.68 C 45.30 162.86 47.82 158.01 50.36 153.16 Z" />
<path fill="#9bca3c" d=" M 510.25 176.09 C 523.58 168.62 536.49 160.41 550.02 153.31 C 562.70 176.78 573.40 201.52 579.28 227.63 C 584.68 247.97 586.68 269.03 587.40 290.01 C 587.31 291.62 587.83 294.56 585.25 294.19 C 570.69 294.15 556.09 294.58 541.54 293.91 C 541.77 252.73 529.98 212.06 510.25 176.09 Z" />
<path fill="#f9a98e" d=" M 255.06 161.85 C 269.03 157.21 283.74 154.99 298.43 154.46 C 298.58 169.91 298.50 185.36 298.48 200.81 C 289.57 201.49 280.65 202.63 272.03 205.07 C 265.82 206.85 260.07 209.84 254.37 212.80 C 247.82 203.07 242.53 192.58 236.50 182.54 C 234.46 179.34 232.65 176.02 230.88 172.68 C 238.42 168.00 246.82 165.02 255.06 161.85 Z" />
<path fill="#ffd8a1" d=" M 301.81 155.03 C 315.17 154.60 328.49 157.09 341.33 160.65 C 350.88 164.05 360.63 167.35 369.17 172.93 C 361.48 186.15 353.75 199.34 346.24 212.68 C 340.64 210.32 335.17 207.64 329.41 205.66 C 320.49 202.64 311.05 201.90 301.78 200.63 C 301.77 185.43 301.73 170.23 301.81 155.03 Z" />
<path fill="#f7aec1" d=" M 178.63 223.37 C 190.98 203.45 207.62 185.80 228.24 174.38 C 236.14 187.43 243.50 200.79 251.27 213.92 C 247.31 217.13 243.07 219.97 239.08 223.15 C 231.11 229.95 224.28 238.04 218.65 246.86 C 205.43 238.83 191.64 231.75 178.63 223.37 Z" />
<path fill="#faf5b3" d=" M 372.07 174.74 C 382.35 180.86 391.67 188.45 400.46 196.53 C 403.39 199.31 405.73 202.61 408.31 205.70 C 412.88 211.43 417.95 216.94 420.89 223.75 C 407.93 231.75 394.45 238.88 381.39 246.71 C 373.20 233.49 361.66 222.68 348.73 214.19 C 356.57 201.07 364.33 187.92 372.07 174.74 Z" />
<path fill="#d671ad" d=" M 92.92 177.74 C 105.98 185.27 119.16 192.59 132.01 200.48 C 127.61 209.05 122.88 217.50 119.75 226.65 C 111.37 247.97 107.28 270.91 106.93 293.78 C 91.80 293.55 76.67 294.84 61.56 293.96 C 61.83 285.28 61.94 276.58 63.15 267.97 C 65.08 253.78 67.42 239.56 72.00 225.95 C 77.09 209.16 83.94 192.83 92.92 177.74 Z" />
<path fill="#aed361" d=" M 468.19 200.35 C 481.12 192.68 494.21 185.28 507.25 177.80 C 517.14 194.75 524.56 213.07 529.99 231.91 C 535.14 252.12 538.75 272.88 538.46 293.80 C 530.63 293.48 522.83 294.59 515.01 294.14 C 507.81 293.83 500.62 293.94 493.42 293.74 C 493.16 282.73 492.29 271.72 490.03 260.93 C 487.50 249.01 485.02 236.95 480.07 225.76 C 476.71 217.02 472.74 208.53 468.19 200.35 Z" />
<path fill="#df92be" d=" M 114.16 255.00 C 118.46 236.50 125.10 218.49 134.53 201.98 C 148.17 209.08 161.16 217.35 174.63 224.76 C 168.04 235.80 163.64 247.97 160.16 260.31 C 157.12 271.36 156.42 282.84 155.61 294.23 C 140.32 294.04 125.01 294.60 109.73 293.89 C 110.52 280.86 111.25 267.76 114.16 255.00 Z" />
<path fill="#c1dd89" d=" M 425.86 224.56 C 439.10 217.19 452.13 209.45 465.33 202.01 C 470.76 211.23 475.42 220.90 478.83 231.06 C 486.65 251.16 489.54 272.80 490.36 294.24 C 475.03 294.36 459.70 294.21 444.37 294.34 C 444.10 281.90 442.32 269.51 439.34 257.44 C 436.20 245.98 431.13 235.17 425.86 224.56 Z" />
<path fill="#fdd2c1" d=" M 255.73 215.13 C 269.11 208.75 283.58 203.26 298.67 204.40 C 298.73 220.17 298.53 235.94 298.71 251.71 C 292.03 252.53 285.60 254.57 279.32 256.91 C 271.59 242.91 263.15 229.30 255.73 215.13 Z" />
<path fill="#ffeacd" d=" M 301.88 204.30 C 316.71 203.59 331.23 208.57 344.20 215.38 C 341.97 219.72 339.76 224.07 337.15 228.19 C 331.32 237.60 326.46 247.60 320.28 256.80 C 314.39 254.28 308.25 252.23 301.83 251.70 C 301.74 235.90 301.65 220.10 301.88 204.30 Z" />
<path fill="#fbd6de" d=" M 241.85 224.78 C 245.15 221.79 249.00 219.54 252.84 217.32 C 259.04 226.94 264.48 237.02 270.10 246.98 C 272.53 250.60 274.66 254.41 276.26 258.48 C 271.52 262.76 266.95 267.24 262.89 272.18 C 248.97 264.60 235.30 256.57 221.72 248.41 C 226.52 239.14 234.01 231.55 241.85 224.78 Z" />
<path fill="#fcf9d8" d=" M 346.70 219.62 C 347.61 218.41 349.20 219.26 350.29 219.69 C 355.89 222.44 360.56 226.77 364.58 231.48 C 369.16 237.03 375.28 241.40 378.19 248.18 C 364.46 255.43 351.50 264.05 337.75 271.25 C 333.07 266.94 328.79 262.23 324.18 257.85 C 329.08 249.51 333.35 240.80 338.57 232.65 C 341.30 228.33 343.00 223.26 346.70 219.62 Z" />
<path fill="#e6b4d3" d=" M 165.07 254.09 C 167.62 244.28 172.34 235.27 177.02 226.34 C 190.42 233.99 203.97 241.41 217.04 249.62 C 209.96 263.39 205.69 278.62 205.00 294.11 C 189.56 294.16 174.10 294.58 158.67 293.86 C 159.05 280.39 160.89 266.94 165.07 254.09 Z" />
<path fill="#d5e6af" d=" M 402.50 238.39 C 409.20 234.35 415.90 230.29 422.97 226.92 C 431.18 240.56 436.40 255.90 439.27 271.51 C 440.17 279.12 441.80 286.79 440.82 294.48 C 426.88 294.17 412.93 294.38 398.99 294.35 C 397.63 294.11 395.63 294.70 395.01 293.05 C 394.20 288.77 394.44 284.38 393.64 280.10 C 392.09 269.28 387.40 259.31 383.21 249.33 C 389.52 245.47 396.03 241.97 402.50 238.39 Z" />
<path fill="#f2d7e8" d=" M 219.93 251.10 C 227.86 255.86 236.04 260.19 243.98 264.93 C 249.71 268.14 255.59 271.11 260.85 275.07 C 258.73 281.22 257.08 287.54 256.32 294.01 C 253.19 294.02 250.07 294.53 246.94 294.44 C 233.94 294.13 220.93 294.64 207.94 294.17 C 209.07 279.26 212.26 264.10 219.93 251.10 Z" />
<path fill="#e7f2d4" d=" M 359.21 263.24 C 366.00 258.98 373.20 255.41 380.02 251.21 C 381.49 253.67 383.06 256.08 384.17 258.74 C 388.61 270.09 391.88 282.05 392.02 294.31 C 376.08 294.37 360.14 294.36 344.20 294.30 C 343.25 287.81 341.40 281.49 339.08 275.37 C 345.37 270.65 352.50 267.28 359.21 263.24 Z" />
<path fill="#8750a1" d=" M 14.00 296.77 C 28.83 297.01 43.67 296.88 58.51 296.85 C 58.67 338.03 69.66 379.19 90.08 414.95 C 77.92 422.26 65.45 429.01 53.30 436.32 C 52.23 436.76 51.17 437.97 49.92 437.47 C 33.22 407.71 21.52 375.08 16.34 341.30 C 13.00 326.68 14.24 311.63 14.00 296.77 Z" />
<path fill="#9a6db0" d=" M 61.48 296.86 C 76.63 297.01 91.79 296.49 106.93 297.17 C 107.39 319.29 110.80 341.57 118.82 362.27 C 122.13 372.31 127.07 381.67 131.86 391.06 C 118.58 398.20 105.89 406.40 92.51 413.32 C 84.45 399.04 77.65 383.98 72.85 368.28 C 65.08 345.32 62.07 321.00 61.48 296.86 Z" />
<path fill="#ac8bc0" d=" M 109.69 296.98 C 124.99 296.76 140.31 297.04 155.62 296.82 C 156.48 311.02 157.69 325.38 162.45 338.90 C 165.49 348.36 169.19 357.64 174.37 366.16 C 161.15 374.09 147.87 381.93 134.31 389.27 C 124.82 372.35 118.07 353.99 113.84 335.07 C 111.17 322.55 110.32 309.74 109.69 296.98 Z" />
<path fill="#c5acd3" d=" M 158.51 297.24 C 173.97 296.48 189.46 296.80 204.94 296.99 C 205.65 312.41 209.59 327.79 217.01 341.37 C 209.24 346.69 200.74 350.77 192.77 355.75 C 187.47 358.91 182.06 361.85 176.78 365.04 C 165.39 344.34 158.96 320.88 158.51 297.24 Z" />
<path fill="#ded2e8" d=" M 208.17 297.20 C 224.23 297.12 240.30 297.13 256.36 297.21 C 257.01 303.74 258.37 310.21 261.09 316.20 C 247.39 324.21 233.56 332.00 219.87 340.04 C 211.83 327.28 208.93 312.06 208.17 297.20 Z" />
<path fill="#e0efd8" d=" M 344.34 297.16 C 360.23 297.20 376.11 297.15 392.00 297.19 C 392.01 308.23 389.20 319.03 385.55 329.37 C 384.28 333.12 382.26 336.54 380.21 339.91 C 371.54 334.88 362.71 330.14 354.21 324.83 C 349.18 321.92 343.89 319.45 339.15 316.06 C 341.40 309.91 343.23 303.61 344.34 297.16 Z" />
<path fill="#c5e2b6" d=" M 394.78 297.22 C 402.50 296.54 410.25 296.81 418.00 296.78 C 425.83 296.84 433.69 296.45 441.51 297.24 C 441.04 309.63 439.52 322.06 436.01 333.99 C 432.80 344.64 429.10 355.26 423.12 364.72 C 415.83 360.34 408.29 356.38 401.05 351.90 C 395.39 348.38 389.08 345.88 383.84 341.72 C 383.57 340.18 384.74 338.71 385.21 337.28 C 391.21 324.82 394.99 311.13 394.78 297.22 Z" />
<path fill="#abd595" d=" M 444.48 296.78 C 459.63 296.63 474.79 296.86 489.94 296.65 C 490.42 328.91 481.60 361.00 465.79 389.05 C 452.33 381.97 439.36 374.00 426.17 366.44 C 437.81 345.13 444.03 321.05 444.48 296.78 Z" />
<path fill="#8ec975" d=" M 484.54 353.39 C 489.83 334.98 493.35 315.96 493.47 296.75 C 508.51 296.81 523.55 296.67 538.60 296.87 C 538.87 318.45 535.14 339.87 529.75 360.70 C 526.90 370.24 523.55 379.63 519.81 388.85 C 515.95 397.07 512.17 405.34 507.86 413.34 C 494.44 406.29 481.60 398.21 468.31 390.93 C 474.84 378.93 480.32 366.38 484.54 353.39 Z" />
<path fill="#71c055" d=" M 541.52 297.06 C 556.84 296.48 572.18 296.91 587.51 296.77 C 587.31 318.05 585.41 339.44 580.19 360.12 C 574.09 387.35 563.74 413.61 549.98 437.88 C 536.71 430.33 523.52 422.66 510.24 415.12 C 520.25 396.38 528.97 376.77 533.83 356.01 C 539.06 336.82 541.51 316.93 541.52 297.06 Z" />
<path fill="#d3cfe8" d=" M 221.11 342.72 C 235.15 335.08 248.60 326.38 262.82 319.07 C 266.77 324.31 271.30 329.13 276.67 332.94 C 268.92 346.86 260.70 360.52 252.82 374.38 C 239.78 366.73 228.95 355.61 221.11 342.72 Z" />
<path fill="#e1f0e9" d=" M 324.01 333.15 C 328.69 328.59 333.07 323.74 337.96 319.40 C 345.16 322.87 351.71 327.49 358.76 331.23 C 365.47 334.86 371.85 339.07 378.44 342.93 C 371.06 355.72 360.38 366.60 347.53 373.93 C 343.46 368.03 340.20 361.64 336.64 355.44 C 332.17 348.16 328.02 340.69 324.01 333.15 Z" />
<path fill="#d2d7ed" d=" M 279.22 334.38 C 284.91 337.08 291.07 338.39 297.18 339.76 C 299.20 340.07 298.83 342.48 298.95 343.98 C 298.43 358.40 298.76 372.83 298.73 387.26 C 290.67 387.46 282.63 386.27 274.87 384.13 C 268.27 382.23 262.08 379.20 255.80 376.48 C 257.44 372.66 259.05 368.81 261.36 365.33 C 267.46 355.10 273.47 344.81 279.22 334.38 Z" />
<path fill="#dbedfb" d=" M 301.90 339.95 C 308.27 338.80 314.57 337.16 320.54 334.58 C 326.40 343.21 330.82 352.69 336.37 361.51 C 339.34 366.27 342.23 371.10 344.15 376.40 C 330.92 382.74 316.69 387.71 301.81 387.35 C 301.80 371.55 301.65 355.75 301.90 339.95 Z" />
<path fill="#b0a9d3" d=" M 178.25 367.67 C 191.59 359.63 205.13 351.92 218.74 344.36 C 226.67 357.64 237.96 368.76 251.06 376.93 C 243.86 390.54 235.82 403.70 228.17 417.06 C 207.42 405.58 190.65 387.72 178.25 367.67 Z" />
<path fill="#c5e5d6" d=" M 369.47 360.42 C 374.06 355.47 377.72 349.78 381.76 344.40 C 394.96 352.07 408.21 359.66 421.36 367.42 C 417.67 375.51 411.71 382.26 406.04 389.02 C 396.32 399.95 384.94 409.37 372.57 417.16 C 370.13 413.91 367.93 410.50 366.10 406.88 C 360.46 396.94 354.44 387.21 349.11 377.10 C 356.20 371.93 363.66 367.07 369.47 360.42 Z" />
<path fill="#9087c0" d=" M 136.02 391.98 C 149.16 384.15 162.51 376.69 175.71 368.96 C 188.14 389.81 205.86 407.29 226.52 419.97 C 219.04 433.04 211.28 445.95 204.06 459.18 C 202.55 458.57 201.01 458.02 199.55 457.33 C 173.72 440.84 151.45 418.53 136.02 391.98 Z" />
<path fill="#abdac6" d=" M 382.23 414.15 C 399.50 402.53 413.62 386.64 424.51 368.98 C 437.65 376.77 451.04 384.13 464.11 392.06 C 447.86 419.76 424.42 443.16 396.78 459.48 C 390.29 449.68 385.02 439.15 378.82 429.18 C 377.05 426.26 375.17 423.33 374.28 420.00 C 376.39 417.40 379.52 416.00 382.23 414.15 Z" />
<path fill="#abb7dd" d=" M 230.67 419.00 C 238.00 405.25 246.23 392.01 253.79 378.39 C 267.31 386.32 283.01 389.76 298.53 390.67 C 298.50 406.12 298.60 421.57 298.47 437.02 C 285.82 437.10 273.33 434.71 261.14 431.52 C 250.46 428.78 240.48 423.94 230.67 419.00 Z" />
<path fill="#b8def5" d=" M 301.83 390.51 C 317.25 389.99 332.76 386.27 346.16 378.45 C 352.33 388.22 357.51 398.56 363.69 408.33 C 365.83 411.74 367.61 415.37 369.43 418.97 C 361.18 423.08 352.87 427.21 344.09 430.05 C 330.38 434.20 316.18 436.96 301.82 437.04 C 301.37 421.54 301.32 406.01 301.83 390.51 Z" />
<path fill="#756bb0" d=" M 94.01 416.04 C 107.20 408.70 120.15 400.94 133.27 393.46 C 150.24 421.35 173.59 445.67 202.06 461.91 C 194.79 475.30 186.93 488.37 179.30 501.56 C 166.18 493.34 153.37 484.57 141.87 474.17 C 122.97 457.48 106.86 437.71 94.01 416.04 Z" />
<path fill="#8ed0b5" d=" M 444.64 423.69 C 453.05 414.42 460.09 404.06 466.88 393.59 C 480.01 400.88 492.86 408.67 506.00 415.95 C 485.72 451.22 455.72 480.59 420.85 501.41 C 413.01 488.42 405.43 475.26 398.08 461.99 C 415.49 451.78 431.32 438.87 444.64 423.69 Z" />
<path fill="#5b52a3" d=" M 75.67 426.72 C 80.81 423.37 86.58 421.11 91.58 417.52 C 105.92 442.16 124.83 464.10 146.82 482.24 C 156.50 490.37 167.09 497.29 177.76 504.02 C 170.48 517.42 162.34 530.32 155.09 543.74 C 121.36 524.29 91.96 497.51 68.73 466.30 C 62.83 458.04 56.88 449.75 52.04 440.81 C 59.48 435.43 67.89 431.57 75.67 426.72 Z" />
<path fill="#71c6a5" d=" M 508.37 417.69 C 521.86 424.92 534.93 432.88 548.26 440.40 C 523.90 483.10 487.67 518.71 445.43 543.71 C 438.18 532.11 431.85 519.98 424.68 508.35 C 423.94 506.82 423.36 505.21 422.75 503.64 C 458.03 482.98 487.82 453.02 508.37 417.69 Z" />
<path fill="#879bce" d=" M 206.07 460.98 C 213.93 447.93 221.28 434.57 229.02 421.44 C 246.18 430.62 264.93 437.01 284.30 439.16 C 289.08 439.47 293.85 439.83 298.62 440.16 C 298.60 455.34 298.49 470.52 298.53 485.70 C 276.46 486.11 254.60 481.38 233.86 474.10 C 224.37 470.23 214.86 466.29 206.07 460.98 Z" />
<path fill="#96d1f3" d=" M 301.80 439.78 C 326.00 440.03 349.88 432.79 371.10 421.44 C 378.78 434.57 386.37 447.75 393.89 460.98 C 379.52 469.32 363.99 475.72 347.84 479.71 C 332.80 483.87 317.17 485.83 301.56 485.67 C 301.62 470.37 301.24 455.07 301.80 439.78 Z" />
<path fill="#6783c2" d=" M 182.03 503.05 C 189.27 489.80 197.13 476.90 204.57 463.76 C 216.46 469.96 228.61 475.83 241.51 479.65 C 259.81 486.08 279.27 487.97 298.52 488.95 C 298.53 503.94 298.44 518.92 298.53 533.91 C 276.07 533.71 253.50 530.91 232.04 524.11 C 214.52 519.31 198.00 511.57 182.03 503.05 Z" />
<path fill="#70c3ed" d=" M 365.20 477.47 C 375.89 474.17 385.51 468.33 395.79 464.00 C 403.10 477.11 411.04 489.86 418.03 503.15 C 409.35 507.55 400.81 512.23 391.70 515.69 C 379.67 521.33 366.78 524.68 353.98 528.02 C 336.85 531.99 319.24 533.83 301.67 533.89 C 301.50 518.90 301.60 503.91 301.59 488.91 C 312.44 488.28 323.31 487.61 334.03 485.78 C 344.69 484.15 355.00 480.88 365.20 477.47 Z" />
<path fill="#e6e6e6" d=" M 54.31 494.65 C 55.48 493.45 56.33 492.03 56.64 490.38 C 57.22 491.55 57.82 492.73 58.44 493.90 C 58.09 494.65 57.41 496.15 57.06 496.90 C 56.38 496.34 55.00 495.22 54.31 494.65 Z" />
<path fill="#e1e1e1" d=" M 543.58 511.38 C 545.07 509.18 545.68 504.66 549.12 505.15 C 549.20 508.49 546.25 510.21 543.58 511.38 Z" />
<path fill="#436fb6" d=" M 157.69 545.51 C 164.76 531.84 173.05 518.82 180.49 505.33 C 207.29 520.97 237.35 530.75 268.03 535.05 C 271.42 535.43 274.87 535.52 278.19 536.41 C 284.23 538.27 290.54 538.90 296.84 538.88 C 297.22 553.65 296.81 568.43 297.00 583.20 C 274.64 582.82 252.40 579.72 230.64 574.64 C 221.66 572.37 212.87 569.40 204.03 566.62 C 188.01 560.92 172.58 553.70 157.69 545.51 Z" />
<path fill="#40b8ea" d=" M 399.68 515.56 C 406.57 512.57 413.18 509.01 419.87 505.59 C 427.15 519.00 435.23 531.96 442.55 545.35 C 399.84 569.83 350.75 582.72 301.55 583.15 C 301.53 567.90 301.49 552.66 301.49 537.41 C 323.24 536.49 345.03 533.97 366.01 528.02 C 377.40 524.35 388.92 520.89 399.68 515.56 Z" />
<path fill="#e7e7e7" d=" M 533.32 509.14 C 535.16 508.52 536.14 511.60 534.19 512.04 C 532.32 512.69 531.36 509.58 533.32 509.14 Z" />
<path fill="#d6d6d6" d=" M 572.10 509.13 C 573.10 510.11 574.11 511.10 575.13 512.10 C 573.38 513.66 571.72 515.30 570.16 517.05 C 570.79 514.40 571.43 511.76 572.10 509.13 Z" />
<path fill="#cecece" d=" M 529.70 512.78 C 530.87 514.41 531.63 516.27 532.09 518.23 C 530.22 517.58 528.53 516.58 526.93 515.45 C 527.62 514.78 529.01 513.44 529.70 512.78 Z" />
<path fill="#dfdfdf" d=" M 556.66 519.95 C 557.26 517.42 557.74 513.20 561.17 513.38 C 561.80 514.65 562.26 516.01 562.69 517.37 C 561.18 517.52 559.70 517.68 558.20 517.83 C 559.40 520.52 561.14 523.46 559.52 526.40 C 558.44 524.34 555.91 522.55 556.66 519.95 Z" />
<path fill="#e1e1e1" d=" M 524.86 516.47 C 526.09 517.82 527.44 519.06 528.88 520.20 C 527.31 520.37 525.75 520.57 524.18 520.79 C 524.41 519.35 524.64 517.91 524.86 516.47 Z" />
<path fill="#eeeeee" d=" M 518.19 532.72 C 520.93 531.33 523.69 529.97 526.58 528.91 C 525.18 531.37 523.26 533.46 521.18 535.36 C 520.18 534.47 519.18 533.59 518.19 532.72 Z" />
<path fill="#4a6d9e" d=" M 278.19 536.41 C 284.99 536.50 291.76 537.19 298.57 537.27 C 298.56 552.53 298.48 567.79 298.49 583.05 L 297.00 583.20 C 296.81 568.43 297.22 553.65 296.84 538.88 C 290.54 538.90 284.23 538.27 278.19 536.41 Z" />
<path fill="#dfdfdf" d=" M 522.42 544.54 C 524.05 543.44 526.06 543.14 527.89 542.49 C 525.56 545.42 522.66 547.84 519.28 549.47 C 520.27 547.80 520.98 545.88 522.42 544.54 Z" />
<path fill="#dedede" d=" M 527.74 558.91 C 529.93 555.96 532.50 553.32 535.37 551.03 C 534.69 552.76 534.16 554.59 533.23 556.22 C 532.06 558.09 529.61 558.19 527.74 558.91 Z" />
<path fill="#d8d8d8" d=" M 200.89 592.17 C 201.63 592.24 203.13 592.38 203.88 592.45 C 203.63 593.77 203.38 595.10 203.13 596.44 C 202.38 596.30 200.88 596.03 200.13 595.89 C 200.38 594.64 200.63 593.40 200.89 592.17 Z" />
<path fill="#e2e2e2" d=" M 410.76 597.18 C 411.09 594.52 413.75 594.01 415.74 593.05 C 415.69 596.00 413.09 596.68 410.76 597.18 Z" />
</svg>
